# xmcd CD database file
#
# Track frame offsets:
#	150
#	8655
#	20125
#	31865
#	44085
#	50955
#	65945
#	80050
#	111272
#	124345
#	155212
#	190077
#	212872
#	225812
#	242420
#	261187
#	286397
#	306022
#
# Disc length: 4457 seconds
#
# Revision: 0
# Processed by: cddbd v1.4PL0 Copyright (c) Steve Scherf et al.
# Submitted via: CDex 1.40Release
#
DISCID=0a116712
DTITLE=Texas Blues-various artists - From Hell To Gone and Back
DYEAR=2002
DGENRE=Blues
TTITLE0=Mance Lipscomb-Freddie
TTITLE1=Mance Lipscomg-So Different Blues
TTITLE2=Mance Lipscomb-God Moves on the Water
TTITLE3=Lightnin' Hopkins-Baby Please Don't Go
TTITLE4=Lightnin' Hopkins-Shake That Thing
TTITLE5=Lightnin' Hopkins-Mojo Hand
TTITLE6=Lightnin' Hopkins-Where Can I Find My Baby
TTITLE7=Big Mama Thornton-Ball and Chain
TTITLE8=Big Mama Thornton-Hound Dog
TTITLE9=Big Mama Thirnton-Rock Me Baby
TTITLE10=Big Mama Thornton-Mr. Cool
TTITLE11=Pee Wee Crayton-THings I Used To Do
TTITLE12=Pee Wee Crayton- Let The Good Times Roll
TTITLE13=Pee Wee Crayton-Blues After Hours
TTITLE14=Pee Wee Crayton-But on the Other Hand
TTITLE15=Lee Roy Parnell-Crossing Over
TTITLE16=Lee Roy Parnell-Breaking Down Slow
TTITLE17=Lee Roy Parnell-Right Where It Hurts
EXTD=YEAR: 2002 ID3G: 0
EXTT0=
EXTT1=
EXTT2=
EXTT3=
EXTT4=
EXTT5=
EXTT6=
EXTT7=
EXTT8=
EXTT9=
EXTT10=
EXTT11=
EXTT12=
EXTT13=
EXTT14=
EXTT15=
EXTT16=
EXTT17=
PLAYORDER=
